<svg aria-hidden="true" style="position: absolute; width: 0; height: 0; overflow: hidden;" version="1.1" xmlns="http://www.w3.org/2000/svg" xmlns:xlink="http://www.w3.org/1999/xlink">
<defs>
<symbol id="icon-facebook" viewBox="0 0 32 32">
<path fill="none" stroke="#fff" style="stroke: var(--color1, #fff)" stroke-linejoin="round" stroke-linecap="round" stroke-miterlimit="4" stroke-width="2.6667" d="M24 2.667h-4c-3.682 0-6.667 2.985-6.667 6.667v0 4h-4v5.333h4v10.667h5.333v-10.667h4l1.333-5.333h-5.333v-4c0-0.736 0.597-1.333 1.333-1.333v0h4v-5.333z"></path>
</symbol>
<symbol id="icon-instagram" viewBox="0 0 32 32">
<path fill="none" stroke="#fff" style="stroke: var(--color1, #fff)" stroke-linejoin="round" stroke-linecap="round" stroke-miterlimit="4" stroke-width="2.6667" d="M22.667 2.667h-13.333c-3.682 0-6.667 2.985-6.667 6.667v0 13.333c0 3.682 2.985 6.667 6.667 6.667v0h13.333c3.682 0 6.667-2.985 6.667-6.667v0-13.333c0-3.682-2.985-6.667-6.667-6.667v0z"></path>
<path fill="none" stroke="#fff" style="stroke: var(--color1, #fff)" stroke-linejoin="round" stroke-linecap="round" stroke-miterlimit="4" stroke-width="2.6667" d="M21.333 15.16c0.037 0.235 0.058 0.506 0.058 0.782 0 2.946-2.388 5.334-5.334 5.334-2.67 0-4.881-1.962-5.272-4.522l-0.004-0.030c-0.037-0.235-0.058-0.506-0.058-0.782 0-2.946 2.388-5.334 5.334-5.334 2.67 0 4.881 1.962 5.272 4.522l0.004 0.030zM23.333 8.667h0.013"></path>
</symbol>
<symbol id="icon-logo" viewBox="0 0 155 32">
<path fill="#fff" style="fill: var(--color1, #fff)" d="M12.097 24.65c-2.398 0-4.458-0.509-6.177-1.527-1.719-1.041-3.043-2.478-3.971-4.31-0.928-1.855-1.391-3.993-1.391-6.415s0.464-4.559 1.391-6.415c0.928-1.855 2.252-3.304 3.971-4.344s3.779-1.561 6.177-1.561c2.851 0 5.181 0.713 6.992 2.138 1.833 1.403 2.975 3.382 3.428 5.939h-4.785c-0.294-1.29-0.928-2.296-1.901-3.021-0.95-0.747-2.218-1.12-3.801-1.12-2.194 0-3.915 0.747-5.159 2.24s-1.867 3.541-1.867 6.143 0.623 4.65 1.867 6.143c1.244 1.471 2.964 2.206 5.159 2.206 1.583 0 2.851-0.339 3.801-1.018 0.973-0.701 1.607-1.663 1.901-2.885h4.785c-0.453 2.444-1.595 4.356-3.428 5.736-1.81 1.38-4.141 2.070-6.992 2.070zM31.384 24.65c-1.448 0-2.636-0.226-3.563-0.679-0.928-0.475-1.618-1.098-2.070-1.867-0.427-0.715-0.679-1.576-0.679-2.496 0-0.017 0-0.035 0-0.052l-0 0.003c0-1.561 0.611-2.829 1.833-3.801s3.055-1.459 5.498-1.459h4.276v-0.407c0-1.154-0.329-2.002-0.984-2.545s-1.471-0.815-2.444-0.815c-0.882 0-1.652 0.215-2.308 0.645-0.657 0.407-1.064 1.018-1.222 1.833h-4.242c0.113-1.222 0.52-2.286 1.222-3.19 0.723-0.905 1.651-1.595 2.783-2.070 1.131-0.497 2.398-0.747 3.801-0.747 2.398 0 4.287 0.599 5.668 1.799s2.070 2.896 2.070 5.091v10.351h-3.7l-0.407-2.715c-0.515 0.92-1.226 1.674-2.080 2.225l-0.025 0.015c-0.882 0.589-2.026 0.882-3.428 0.882zM32.369 21.256c1.244 0 2.206-0.407 2.885-1.222 0.701-0.815 1.142-1.821 1.324-3.021h-3.699c-1.154 0-1.98 0.215-2.478 0.645-0.498 0.407-0.747 0.916-0.747 1.527 0 0.657 0.248 1.166 0.747 1.527s1.154 0.543 1.969 0.543zM51.448 24.65c-1.493 0-2.805-0.238-3.937-0.713-1.132-0.497-2.036-1.176-2.715-2.036s-1.086-1.855-1.222-2.987h4.378c0.136 0.657 0.497 1.222 1.086 1.697 0.611 0.453 1.392 0.679 2.342 0.679s1.641-0.192 2.070-0.577c0.452-0.385 0.679-0.826 0.679-1.324 0-0.724-0.317-1.21-0.95-1.459-0.634-0.271-1.516-0.531-2.647-0.781-0.944-0.206-1.684-0.405-2.411-0.632l0.205 0.055c-0.796-0.24-1.482-0.529-2.13-0.878l0.060 0.030c-0.597-0.35-1.095-0.805-1.484-1.343l-0.010-0.014c-0.385-0.565-0.577-1.256-0.577-2.070 0-1.493 0.588-2.749 1.765-3.767 1.199-1.018 2.873-1.527 5.023-1.527 1.991 0 3.574 0.463 4.752 1.392 1.199 0.928 1.911 2.206 2.138 3.835h-4.107c-0.249-1.244-1.188-1.867-2.817-1.867-0.815 0-1.448 0.158-1.901 0.475-0.431 0.317-0.645 0.713-0.645 1.188 0 0.497 0.328 0.894 0.984 1.188 0.655 0.294 1.527 0.565 2.613 0.815 1.176 0.271 2.252 0.577 3.224 0.916 0.995 0.317 1.787 0.803 2.376 1.459 0.589 0.633 0.882 1.55 0.882 2.749 0.022 1.041-0.249 1.98-0.815 2.817s-1.38 1.493-2.444 1.968-2.319 0.713-3.767 0.713zM68.614 24.242c-1.765 0-3.18-0.43-4.242-1.29s-1.595-2.387-1.595-4.582v-7.331h-2.885v-3.631h2.885l0.509-4.514h3.835v4.514h4.548v3.631h-4.548v7.365c0 0.815 0.17 1.38 0.509 1.697 0.362 0.294 0.973 0.441 1.833 0.441h2.104v3.699h-2.953zM80.523 24.65c-1.448 0-2.636-0.226-3.564-0.679-0.928-0.475-1.617-1.098-2.070-1.867-0.427-0.715-0.679-1.576-0.679-2.496 0-0.017 0-0.035 0-0.052l-0 0.003c0-1.561 0.611-2.829 1.833-3.801s3.055-1.459 5.498-1.459h4.276v-0.407c0-1.154-0.328-2.002-0.984-2.545s-1.471-0.815-2.444-0.815c-0.882 0-1.651 0.215-2.308 0.645-0.656 0.407-1.064 1.018-1.222 1.833h-4.241c0.113-1.222 0.521-2.286 1.222-3.19 0.724-0.905 1.651-1.595 2.783-2.070 1.132-0.497 2.398-0.747 3.801-0.747 2.398 0 4.288 0.599 5.668 1.799s2.070 2.896 2.070 5.091v10.351h-3.699l-0.407-2.715c-0.515 0.92-1.226 1.674-2.080 2.225l-0.025 0.015c-0.882 0.589-2.025 0.882-3.428 0.882zM81.507 21.256c1.244 0 2.206-0.407 2.885-1.222 0.701-0.815 1.142-1.821 1.324-3.021h-3.698c-1.154 0-1.98 0.215-2.478 0.645-0.497 0.407-0.747 0.916-0.747 1.527 0 0.657 0.249 1.166 0.747 1.527s1.154 0.543 1.969 0.543zM96.754 24.242l-4.921-16.834h4.31l2.919 12.116 3.394-12.116h4.819l3.394 12.116 2.953-12.116h4.31l-4.955 16.834h-4.514l-3.598-12.591-3.598 12.591h-4.514zM124.937 24.65c-1.448 0-2.636-0.226-3.564-0.679-0.927-0.475-1.617-1.098-2.070-1.867-0.427-0.715-0.679-1.577-0.679-2.498 0-0.017 0-0.033 0-0.050l-0 0.003c0-1.561 0.611-2.829 1.833-3.801s3.055-1.459 5.498-1.459h4.276v-0.407c0-1.154-0.328-2.002-0.984-2.545-0.655-0.543-1.47-0.815-2.444-0.815-0.882 0-1.651 0.215-2.308 0.645-0.656 0.407-1.063 1.018-1.222 1.833h-4.242c0.113-1.222 0.521-2.286 1.222-3.19 0.724-0.905 1.652-1.595 2.783-2.070 1.132-0.497 2.399-0.747 3.801-0.747 2.399 0 4.288 0.599 5.668 1.799s2.070 2.896 2.070 5.091v10.351h-3.699l-0.407-2.715c-0.515 0.921-1.225 1.675-2.080 2.225l-0.025 0.015c-0.882 0.589-2.025 0.882-3.428 0.882zM125.921 21.256c1.245 0 2.206-0.407 2.885-1.222 0.702-0.815 1.143-1.821 1.324-3.021h-3.699c-1.154 0-1.979 0.215-2.478 0.645-0.497 0.407-0.747 0.916-0.747 1.527 0 0.657 0.249 1.166 0.747 1.527s1.154 0.543 1.969 0.543zM139.583 31.709l3.903-8.587h-1.018l-6.55-15.714h4.718l4.718 11.845 4.921-11.845h4.616l-10.691 24.301h-4.616z"></path>
</symbol>
<symbol id="icon-pinterest" viewBox="0 0 32 32">
<path fill="#fff" style="fill: var(--color1, #fff)" d="M15.66 30c7.731 0 14-6.268 14-14s-6.269-14-14-14c-7.733 0-14 6.268-14 14s6.267 14 14 14z"></path>
<path fill="#f43e37" style="fill: var(--color2, #f43e37)" d="M16.186 0c-8.575 0-15.526 7.163-15.526 16s6.952 16 15.527 16c8.576 0 15.527-7.163 15.527-16s-6.95-16-15.527-16zM20.996 16.148c0-2.655-2.089-4.808-4.666-4.808s-4.666 2.152-4.666 4.808c0 2.655 2.090 4.808 4.666 4.808v2.748c-4.050 0-7.332-3.383-7.332-7.556s3.282-7.556 7.332-7.556 7.333 3.383 7.333 7.556h-2.667zM25.496 16.148c0-5.216-4.104-9.444-9.166-9.444s-9.165 4.228-9.165 9.444c0 5.216 4.103 9.444 9.165 9.444v3.148c-6.749 0-12.22-5.638-12.22-12.592s5.471-12.592 12.22-12.592c6.75 0 12.22 5.637 12.22 12.592h-3.055z"></path>
</symbol>
<symbol id="icon-podcast" viewBox="0 0 32 32">
<path fill="#000" style="fill: var(--color3, #000)" d="M31.367 27.736c-0.31 0.79-1.029 1.902-2.047 2.686-0.638 0.509-1.388 0.909-2.205 1.158l-0.047 0.012c-1.028 0.305-2.293 0.408-3.868 0.408h-14.4c-1.575 0-2.84-0.103-3.867-0.407-0.864-0.261-1.615-0.662-2.267-1.181l0.014 0.010c-1.018-0.784-1.736-1.896-2.047-2.686-0.627-1.592-0.633-3.398-0.633-4.536v-14.4c0-1.138 0.006-2.944 0.633-4.536 0.311-0.79 1.029-1.902 2.047-2.686 0.638-0.509 1.389-0.909 2.205-1.158l0.048-0.012c1.027-0.306 2.292-0.408 3.867-0.408h14.4c1.575 0 2.84 0.103 3.868 0.407 0.864 0.261 1.615 0.662 2.267 1.181l-0.014-0.010c1.017 0.784 1.735 1.896 2.046 2.686 0.627 1.592 0.633 3.398 0.633 4.536v14.4c0 1.137-0.006 2.944-0.633 4.536z"></path>
<path fill="#fff" style="fill: var(--color1, #fff)" d="M18.32 18.393c-0.48-0.506-1.323-0.831-2.318-0.831s-1.84 0.325-2.32 0.831c-0.25 0.265-0.383 0.536-0.425 0.922-0.080 0.747-0.035 1.391 0.053 2.42 0.083 0.981 0.242 2.289 0.448 3.621 0.148 0.948 0.267 1.46 0.376 1.826 0.176 0.594 0.836 1.113 1.868 1.113 1.031 0 1.69-0.52 1.867-1.113 0.11-0.366 0.229-0.878 0.376-1.826 0.156-0.906 0.314-2.146 0.431-3.399l0.017-0.221c0.088-1.030 0.133-1.674 0.053-2.421-0.030-0.362-0.187-0.683-0.425-0.922l0 0zM13.385 13.883c0 1.446 1.173 2.619 2.619 2.619s2.619-1.173 2.619-2.619v0c0-1.446-1.173-2.619-2.619-2.619s-2.619 1.173-2.619 2.619v0zM15.972 3.547c-6.125 0.017-11.144 4.986-11.22 11.111-0.061 4.961 3.106 9.205 7.528 10.76 0.015 0.006 0.033 0.009 0.052 0.009 0.083 0 0.15-0.067 0.15-0.15 0-0.008-0.001-0.015-0.002-0.023l0 0.001c-0.015-0.032-0.073-0.426-0.127-0.82l-0.037-0.333c-0.018-0.137-0.105-0.25-0.225-0.304l-0.002-0.001c-3.496-1.527-5.936-5.033-5.897-9.093 0.051-5.33 4.403-9.674 9.732-9.717 5.447-0.044 9.893 4.375 9.893 9.813 0 4.020-2.43 7.483-5.898 8.997-0.122 0.055-0.209 0.169-0.227 0.304l-0 0.002c-0.050 0.38-0.105 0.767-0.163 1.152-0.001 0.007-0.002 0.015-0.002 0.023 0 0.083 0.067 0.15 0.15 0.15 0.019 0 0.036-0.003 0.053-0.010l-0.001 0c4.38-1.54 7.528-5.719 7.528-10.619 0-6.216-5.066-11.27-11.285-11.253zM15.768 8.71c0.070-0.003 0.152-0.005 0.235-0.005 3.369 0 6.101 2.729 6.105 6.097v0c0 1.751-0.742 3.332-1.928 4.445-0.090 0.085-0.147 0.206-0.147 0.339 0 0.009 0 0.019 0.001 0.028l-0-0.001c0.023 0.42 0.015 0.826-0.013 1.286-0.008 0.122 0.13 0.2 0.23 0.131 2.001-1.375 3.296-3.65 3.297-6.228v-0c0-4.255-3.545-7.699-7.837-7.532-3.988 0.154-7.188 3.443-7.24 7.434-0 0.029-0.001 0.063-0.001 0.097 0 2.579 1.295 4.855 3.271 6.213l0.025 0.017c0.101 0.069 0.238-0.010 0.23-0.132-0.016-0.222-0.026-0.482-0.026-0.744 0-0.191 0.005-0.38 0.015-0.569l-0.001 0.026c0-0.007 0.001-0.016 0.001-0.025 0-0.134-0.057-0.255-0.147-0.34l-0-0c-1.187-1.113-1.927-2.691-1.927-4.442 0-0.059 0.001-0.118 0.002-0.176l-0 0.009c0.084-3.195 2.66-5.806 5.855-5.93z"></path>
</symbol>
<symbol id="icon-radio" viewBox="0 0 32 32">
<path fill="#fff" style="fill: var(--color1, #fff); stroke: var(--color4, #363f46)" stroke="#363f46" stroke-linejoin="miter" stroke-linecap="round" stroke-miterlimit="4" stroke-width="2.426" d="M15.938 30c7.765 0 14.062-6.296 14.062-14.063 0-7.766-6.296-14.062-14.063-14.062-7.766 0-14.062 6.296-14.062 14.063 0 7.765 6.296 14.062 14.063 14.062z"></path>
<path fill="#fff" style="fill: var(--color1, #fff)" d="M8.303 9.999s-1.945 2.194-1.945 6.027 1.945 5.938 1.945 5.938z"></path>
<path fill="none" stroke="#fc7e0f" style="stroke: var(--color5, #fc7e0f)" stroke-linejoin="miter" stroke-linecap="round" stroke-miterlimit="4" stroke-width="2.426" d="M8.303 9.999s-1.945 2.194-1.945 6.027 1.945 5.938 1.945 5.938"></path>
<path fill="#fff" style="fill: var(--color1, #fff)" d="M23.796 9.999s1.945 2.194 1.945 6.027-1.945 5.938-1.945 5.938z"></path>
<path fill="none" stroke="#fc7e0f" style="stroke: var(--color5, #fc7e0f)" stroke-linejoin="miter" stroke-linecap="round" stroke-miterlimit="4" stroke-width="2.426" d="M23.796 9.999s1.945 2.194 1.945 6.027-1.945 5.938-1.945 5.938"></path>
<path fill="#fff" style="fill: var(--color1, #fff)" d="M20.694 12.563s1.31 1.63 1.278 3.455c-0.040 2.194-1.262 3.399-1.262 3.399z"></path>
<path fill="none" stroke="#fc7e0f" style="stroke: var(--color5, #fc7e0f)" stroke-linejoin="miter" stroke-linecap="round" stroke-miterlimit="4" stroke-width="2.426" d="M20.694 12.563s1.31 1.63 1.278 3.455c-0.040 2.194-1.262 3.399-1.262 3.399"></path>
<path fill="#fff" style="fill: var(--color1, #fff)" d="M11.34 12.563s-1.31 1.63-1.277 3.455c0.040 2.194 1.262 3.399 1.262 3.399z"></path>
<path fill="none" stroke="#fc7e0f" style="stroke: var(--color5, #fc7e0f)" stroke-linejoin="miter" stroke-linecap="round" stroke-miterlimit="4" stroke-width="2.426" d="M11.34 12.563s-1.31 1.63-1.277 3.455c0.040 2.194 1.262 3.399 1.262 3.399"></path>
<path fill="#363f46" style="fill: var(--color4, #363f46)" d="M15.936 18.12c0.014 0 0.030 0 0.047 0 1.206 0 2.183-0.977 2.183-2.183s-0.977-2.183-2.183-2.183c-0.016 0-0.033 0-0.049 0.001l0.002-0c-1.206 0-2.183 0.977-2.183 2.183s0.977 2.183 2.183 2.183v0z"></path>
<path fill="#363f46" style="fill: var(--color4, #363f46)" d="M16.305 17.977l-1.549-0.416-2.578 9.631 1.548 0.416 2.579-9.631z"></path>
<path fill="#363f46" style="fill: var(--color4, #363f46)" d="M15.705 17.964l1.542-0.41 2.565 9.64-1.542 0.409-2.565-9.639z"></path>
<path fill="#363f46" style="fill: var(--color4, #363f46)" d="M14.273 23.162l0.572-0.587 3.97 3.868-0.573 0.587-3.97-3.868z"></path>
<path fill="#363f46" style="fill: var(--color4, #363f46)" d="M17.635 23.183l-0.518-0.526-3.936 3.909 0.518 0.525 3.936-3.909z"></path>
</symbol>
<symbol id="icon-soundcloud" viewBox="0 0 32 32">
<path fill="#000" style="fill: var(--color3, #000)" d="M31.66 16c0 8.889-7.133 16-15.768 16-8.634 0-15.892-7.111-15.892-16s7.133-16 15.767-16 15.893 7.111 15.893 16z"></path>
<path fill="#fff" style="fill: var(--color1, #fff)" d="M4.67 17.069c0.006-0.053 0.044-0.090 0.090-0.090s0.084 0.037 0.091 0.090l0.197 1.277-0.198 1.254c-0.007 0.053-0.044 0.090-0.090 0.090s-0.085-0.038-0.091-0.090l-0.166-1.255 0.166-1.277zM5.598 16.189c0.048 0 0.087 0.038 0.095 0.093l0.253 2.064-0.254 2.019c-0.007 0.055-0.046 0.093-0.094 0.093s-0.088-0.040-0.094-0.094l-0.223-2.018 0.223-2.064c0.007-0.054 0.046-0.093 0.094-0.093zM9.030 14.55c0.002-0.095 0.078-0.171 0.172-0.173h0c0.090 0 0.166 0.076 0.171 0.173l0.2 3.798-0.2 2.454c-0.003 0.094-0.078 0.169-0.171 0.172h-0c-0.094-0.002-0.17-0.078-0.172-0.172v-0l-0.177-2.454 0.177-3.798zM7.252 15.83c0.006-0.076 0.063-0.133 0.133-0.133s0.127 0.057 0.133 0.133l0.227 2.517-0.227 2.434c-0.006 0.076-0.063 0.133-0.133 0.133s-0.127-0.057-0.133-0.133l-0.2-2.434 0.2-2.517zM11.257 20.762c-0.002 0.116-0.095 0.209-0.21 0.211h-0c-0.115-0.002-0.208-0.095-0.21-0.21v-0l-0.155-2.415 0.155-5.055c0.001-0.116 0.094-0.21 0.21-0.212h0c0.113 0 0.205 0.093 0.21 0.212l0.174 5.056-0.174 2.413zM15.112 20.694c-0.002 0.158-0.129 0.287-0.287 0.29h-0c-0.158-0.002-0.286-0.13-0.288-0.288v-0l-0.108-2.348 0.108-5.837c0.001-0.159 0.129-0.288 0.288-0.29h0c0.156 0 0.285 0.13 0.287 0.29l0.122 5.84-0.122 2.343zM13.17 20.724c-0.001 0.138-0.111 0.249-0.249 0.251h-0c-0.137-0.002-0.247-0.113-0.248-0.25v-0l-0.132-2.376 0.131-5.093c0.001-0.138 0.112-0.249 0.25-0.25h0c0.135 0 0.244 0.11 0.248 0.25l0.148 5.093-0.148 2.377v-0.002zM8.442 20.801c-0.006 0.087-0.071 0.152-0.152 0.152-0.082 0-0.147-0.066-0.152-0.152l-0.189-2.455 0.189-2.334c0.005-0.087 0.070-0.152 0.152-0.152 0.080 0 0.146 0.065 0.152 0.151l0.214 2.335-0.214 2.455zM6.602 20.706c-0.007 0.066-0.055 0.113-0.114 0.113s-0.108-0.048-0.113-0.113l-0.212-2.36 0.212-2.45c0.006-0.064 0.053-0.112 0.113-0.112 0.059 0 0.107 0.047 0.114 0.113l0.24 2.45-0.24 2.36zM13.6 13.443c0-0.001 0-0.001 0-0.002 0-0.149 0.121-0.27 0.27-0.27 0 0 0 0 0 0v0c0.148 0.002 0.267 0.122 0.267 0.27 0 0 0 0.001 0 0.001v-0l0.135 4.908-0.135 2.361v-0.002c0 0 0 0.001 0 0.001 0 0.148-0.12 0.269-0.268 0.27h-0c-0.148-0.001-0.268-0.122-0.268-0.27 0 0 0 0 0 0v0l-0.12-2.36 0.12-4.907zM10.312 20.786c-0.002 0.105-0.086 0.189-0.191 0.192h-0c-0.104-0.002-0.188-0.086-0.191-0.19v-0l-0.166-2.44 0.166-4.666c0.002-0.105 0.085-0.189 0.19-0.192h0c0.103 0 0.186 0.084 0.192 0.192l0.187 4.666-0.188 2.438zM12.21 20.748c-0.002 0.126-0.104 0.228-0.23 0.23h-0c-0.126-0.002-0.228-0.104-0.229-0.23v-0l-0.143-2.4 0.143-5.226c0 0 0 0 0 0 0-0.127 0.103-0.231 0.23-0.232h0c0.124 0 0.225 0.102 0.229 0.232l0.16 5.227-0.16 2.398zM23.291 15.556c0.332-0.141 0.697-0.22 1.078-0.22 1.539 0 2.786 1.266 2.786 2.828 0 1.561-1.248 2.827-2.786 2.827l-7.723-0.004c-0.169-0.021-0.298-0.162-0.3-0.334v-8.974c0.002-0.165 0.058-0.25 0.268-0.332 0.528-0.213 1.14-0.337 1.781-0.338h0.001c2.568 0 4.674 1.999 4.895 4.547zM15.469 11.982c0.001-0.17 0.138-0.307 0.307-0.31h0c0.167 0 0.304 0.139 0.307 0.31l0.136 6.369-0.136 2.312v-0.003c-0.001 0.17-0.138 0.307-0.307 0.31h-0c-0.169-0.002-0.305-0.138-0.307-0.307v-0l-0.126-2.312 0.126-6.369z"></path>
</symbol>
<symbol id="icon-spotify" viewBox="0 0 32 32">
<path fill="#1ed760" style="fill: var(--color6, #1ed760)" d="M16 0.053c-8.81 0-15.953 7.141-15.953 15.95 0 8.81 7.142 15.951 15.951 15.951s15.952-7.14 15.952-15.95-7.141-15.95-15.952-15.95v-0.002zM23.314 23.058c-0.178 0.287-0.491 0.476-0.848 0.476-0.192 0-0.371-0.054-0.523-0.148l0.004 0.002c-3.745-2.288-8.46-2.806-14.012-1.537-0.064 0.015-0.138 0.023-0.214 0.023-0.55 0-0.995-0.445-0.995-0.995 0-0.468 0.323-0.861 0.759-0.967l0.007-0.001c6.076-1.388 11.288-0.79 15.493 1.78 0.468 0.287 0.617 0.899 0.33 1.367zM25.267 18.715c-0.36 0.585-1.126 0.77-1.71 0.41-4.288-2.636-10.824-3.4-15.896-1.86-0.108 0.034-0.232 0.054-0.361 0.054-0.558 0-1.030-0.367-1.188-0.873l-0.002-0.009c-0.034-0.108-0.053-0.231-0.053-0.36 0-0.559 0.368-1.031 0.874-1.189l0.009-0.002c5.793-1.758 12.994-0.907 17.918 2.12 0.585 0.36 0.77 1.125 0.41 1.709zM25.434 14.192c-5.14-3.054-13.622-3.334-18.53-1.845-0.135 0.045-0.291 0.070-0.452 0.070-0.824 0-1.492-0.668-1.492-1.492 0-0.676 0.45-1.247 1.067-1.431l0.011-0.003c5.635-1.71 15.001-1.38 20.92 2.134 0.441 0.265 0.731 0.74 0.731 1.283 0 0.824-0.668 1.492-1.492 1.492-0.281 0-0.543-0.078-0.768-0.212l0.007 0.004z"></path>
</symbol>
<symbol id="icon-star" viewBox="0 0 34 32">
<path fill="#fcff51" style="fill: var(--color7, #fcff51)" d="M16.966 25.783l7.812 4.725c1.431 0.866 3.181-0.414 2.805-2.033l-2.071-8.885 6.908-5.986c1.261-1.092 0.584-3.162-1.073-3.294l-9.092-0.772-3.558-8.395c-0.64-1.525-2.824-1.525-3.464 0l-3.558 8.376-9.092 0.772c-1.656 0.132-2.334 2.202-1.073 3.294l6.908 5.986-2.071 8.885c-0.376 1.619 1.374 2.899 2.805 2.033l7.812-4.706z"></path>
</symbol>
<symbol id="icon-twitter" viewBox="0 0 32 32">
<path fill="none" stroke="#fff" style="stroke: var(--color1, #fff)" stroke-linejoin="round" stroke-linecap="round" stroke-miterlimit="4" stroke-width="2.6667" d="M30.667 4c-1.2 0.856-2.591 1.552-4.084 2.013l-0.103 0.027c-1.101-1.261-2.712-2.053-4.507-2.053-3.299 0-5.973 2.674-5.973 5.973 0 0.028 0 0.056 0.001 0.084l-0-0.004v1.333c-0.11 0.003-0.239 0.005-0.368 0.005-4.79 0-9.027-2.37-11.602-6.001l-0.030-0.044s-5.333 12 6.667 17.333c-2.442 1.677-5.462 2.679-8.716 2.679-0.217 0-0.433-0.004-0.648-0.013l0.031 0.001c12 6.667 26.667 0 26.667-15.333 0-0.373-0.040-0.747-0.107-1.107 1.323-1.305 2.293-2.963 2.758-4.822l0.015-0.071z"></path>
</symbol>
</defs>
</svg>
